<?xml version="1.0" standalone="no"?>
<!DOCTYPE svg PUBLIC "-//W3C//DTD SVG 20010904//EN"
 "http://www.w3.org/TR/2001/REC-SVG-20010904/DTD/svg10.dtd">
<svg version="1.0" xmlns="http://www.w3.org/2000/svg"
 width="500.000000pt" height="500.000000pt" viewBox="0 0 500.000000 500.000000"
 preserveAspectRatio="xMidYMid meet">

<g transform="translate(0.000000,500.000000) scale(0.100000,-0.100000)"
fill="#000000" stroke="none">
<path d="M2423 4394 c-49 -24 -85 -79 -91 -135 -2 -27 0 -55 6 -62 12 -14 298
-17 321 -3 23 15 9 107 -23 148 -47 62 -144 86 -213 52z"/>
<path d="M2353 4110 c-307 -35 -581 -168 -804 -390 -113 -113 -215 -255 -268
-373 -69 -153 -121 -351 -121 -457 0 -45 2 -49 29 -55 16 -3 45 -3 65 1 40 7
37 1 56 124 35 222 100 375 236 556 134 177 355 334 578 408 43 14 95 26 115
25 34 0 32 -2 -34 -29 -272 -109 -510 -318 -643 -560 -71 -129 -132 -351 -132
-476 l0 -44 173 -1 c147 -2 600 -1 1970 1 l267 0 0 49 c0 27 -9 91 -19 142
-57 275 -175 494 -370 690 -203 202 -439 327 -706 374 -107 18 -299 26 -392
15z"/>
<path d="M913 2743 c-28 -27 -28 -34 -4 -64 l19 -24 1570 0 c1530 0 1570 0
1591 19 24 22 27 44 7 71 -13 19 -55 19 -1587 20 l-1574 0 -22 -22z"/>
<path d="M1662 2568 c-28 -14 -40 -55 -21 -73 8 -7 42 -25 77 -39 141 -56 210
-113 510 -415 197 -198 299 -279 623 -493 283 -187 337 -220 350 -216 14 5
209 377 209 399 0 10 -21 31 -47 47 -121 78 -142 123 -156 334 -13 197 -4 246
58 322 45 55 65 88 65 105 0 42 -94 55 -159 21 -58 -29 -100 -85 -171 -225
-111 -220 -179 -252 -389 -180 -90 30 -307 127 -375 167 -28 17 -100 64 -159
105 -150 103 -240 145 -325 149 -38 2 -77 -1 -90 -8z"/>
<path d="M3487 1708 c-33 -53 -257 -490 -262 -511 -5 -17 1 -26 27 -42 18 -10
216 -140 440 -287 224 -147 410 -268 413 -268 3 0 4 204 3 452 l-3 453 -289
112 c-160 62 -296 113 -303 113 -7 0 -19 -10 -26 -22z m68 -553 c14 -13 25
-30 25 -38 0 -23 -40 -67 -61 -67 -24 0 -69 43 -69 65 0 21 44 65 65 65 9 0
27 -11 40 -25z"/>
</g>
</svg>
